<?xml version="1.0" standalone="no"?>
<!DOCTYPE svg PUBLIC "-//W3C//DTD SVG 20010904//EN"
 "http://www.w3.org/TR/2001/REC-SVG-20010904/DTD/svg10.dtd">
<svg version="1.0" xmlns="http://www.w3.org/2000/svg"
 width="847.000000pt" height="475.000000pt" viewBox="0 0 847.000000 475.000000"
 preserveAspectRatio="xMidYMid meet">

<g transform="translate(0.000000,475.000000) scale(0.100000,-0.100000)"
fill="#000000" stroke="none">
<path d="M1312 4125 c-8 -17 -20 -25 -37 -25 -31 0 -43 -25 -22 -48 8 -9 17
-33 19 -52 3 -32 5 -35 33 -33 17 2 35 3 40 3 6 0 24 -1 40 -3 28 -2 30 0 27
27 -2 19 4 36 19 52 18 19 20 26 9 39 -7 8 -21 15 -31 15 -10 0 -26 11 -35 25
-9 14 -24 25 -34 25 -9 0 -22 -11 -28 -25z m61 -89 c-4 -18 -10 -22 -28 -18
-29 5 -37 31 -17 54 12 15 15 15 31 1 11 -9 16 -24 14 -37z"/>
<path d="M1079 4076 c-7 -14 -23 -26 -40 -30 -37 -7 -47 -31 -23 -57 11 -12
17 -32 16 -49 -4 -35 11 -45 48 -30 21 9 33 9 50 0 30 -16 54 4 45 38 -4 18 0
31 17 49 23 24 23 25 4 39 -11 8 -27 14 -36 14 -9 0 -22 11 -28 25 -15 32 -39
32 -53 1z m56 -84 c-3 -8 -5 -17 -5 -22 0 -18 -47 -6 -56 14 -7 17 -5 23 11
32 24 12 58 -4 50 -24z"/>
<path d="M1558 4079 c-7 -11 -28 -27 -45 -34 -36 -15 -42 -35 -18 -55 8 -7 15
-28 15 -47 0 -39 18 -50 50 -33 18 9 28 9 46 0 31 -17 52 0 46 38 -2 18 2 33
12 41 27 22 20 51 -14 57 -16 4 -36 17 -45 30 -19 29 -31 30 -47 3z m44 -62
c11 -9 14 -18 8 -27 -5 -8 -7 -17 -4 -21 2 -4 -7 -6 -20 -5 -26 1 -55 46 -30
46 8 0 14 5 14 10 0 13 11 12 32 -3z"/>
<path d="M822 3958 c-18 -18 -14 -89 6 -119 9 -15 27 -35 40 -46 19 -14 22
-24 17 -46 -8 -32 -20 -35 -34 -8 -13 24 -96 65 -116 57 -9 -3 -15 -19 -15
-39 0 -46 48 -112 94 -128 29 -11 36 -18 36 -40 l0 -27 -37 19 c-47 24 -111
25 -120 2 -18 -46 75 -132 143 -133 29 0 44 -14 44 -39 0 -4 -24 -6 -52 -3
-101 8 -138 -31 -78 -81 40 -35 93 -50 150 -45 37 4 49 1 58 -13 10 -15 6 -18
-31 -23 -55 -8 -109 -41 -105 -63 9 -50 138 -74 210 -39 29 14 41 15 58 6 21
-11 20 -13 -31 -39 -31 -15 -60 -38 -69 -54 -14 -26 -14 -29 4 -43 25 -18 107
-18 149 0 18 7 45 27 59 44 22 26 33 31 64 29 28 -1 39 2 42 14 2 12 -11 19
-55 29 -140 31 -250 119 -312 250 -32 67 -36 85 -39 175 -5 117 16 193 75 283
28 41 33 56 24 65 -10 9 -19 5 -42 -21 -26 -29 -29 -30 -29 -11 0 21 -69 99
-87 99 -5 0 -14 -5 -21 -12z m66 -115 c-3 -14 -8 -11 -21 14 -25 47 -22 76 4
36 11 -18 19 -40 17 -50z m-77 -122 c16 -16 29 -37 29 -46 0 -16 -2 -16 -22
-3 -28 19 -65 78 -48 78 6 0 25 -13 41 -29z m-28 -175 c18 -7 41 -23 51 -35
19 -21 19 -21 -1 -21 -23 0 -84 39 -91 58 -5 15 1 15 41 -2z m92 -193 c19 -9
35 -20 35 -25 0 -23 -118 4 -134 31 -11 17 58 13 99 -6z m139 -163 c5 -5 -2
-12 -16 -15 -35 -9 -113 -2 -113 10 0 22 106 26 129 5z m156 -108 c0 -15 -70
-42 -107 -42 -40 0 -37 9 12 34 32 17 95 22 95 8z"/>
<path d="M1795 3948 c-15 -12 -34 -37 -42 -56 l-15 -35 -23 29 c-19 24 -26 27
-36 16 -11 -10 -10 -17 4 -40 109 -166 123 -335 43 -498 -58 -116 -159 -197
-291 -231 -47 -12 -70 -23 -70 -33 0 -11 12 -15 42 -15 33 0 46 -5 58 -23 26
-36 88 -62 149 -62 89 0 106 37 40 89 -14 11 -41 25 -60 31 -35 12 -35 12 -14
27 20 14 26 14 62 -3 77 -35 203 -9 203 42 0 23 -75 64 -119 64 -28 0 -28 1
-12 19 13 14 26 17 65 13 65 -6 113 12 152 55 l32 37 -24 19 c-20 16 -35 18
-87 14 -53 -4 -62 -2 -58 10 3 8 6 19 6 24 0 5 13 9 29 9 61 0 118 36 148 93
29 56 -31 75 -114 37 l-43 -19 0 28 c0 22 6 30 25 35 64 16 128 112 104 157
-5 11 -14 19 -19 19 -23 0 -68 -24 -96 -51 l-31 -30 -11 26 c-11 23 -8 29 27
64 42 42 58 92 41 135 -12 32 -29 33 -65 4z m24 -67 c-12 -33 -39 -62 -39 -42
0 19 29 71 40 71 5 0 5 -12 -1 -29z m75 -168 c-11 -14 -30 -33 -42 -41 -35
-23 -27 5 13 45 40 40 59 37 29 -4z m30 -174 c-23 -25 -66 -49 -90 -49 -41 0
53 68 95 70 10 0 9 -5 -5 -21z m-24 -178 c0 -13 -76 -41 -111 -41 -37 0 -30
16 15 36 35 15 96 19 96 5z m-136 -162 c51 -14 31 -29 -39 -29 -53 0 -93 15
-65 24 8 2 22 7 30 9 23 8 32 8 74 -4z m-147 -135 l28 -19 -34 -3 c-37 -4 -84
12 -103 36 -12 13 -8 15 34 10 26 -3 60 -14 75 -24z"/>
<path d="M2750 3820 l0 -80 70 0 70 0 0 -285 0 -285 95 0 95 0 2 283 3 282 73
3 72 3 0 79 0 80 -240 0 -240 0 0 -80z"/>
<path d="M1277 3870 c-59 -15 -98 -38 -149 -88 -53 -51 -59 -73 -26 -96 24
-17 84 -21 106 -8 7 5 35 1 62 -7 l50 -16 0 -57 0 -58 -64 0 c-40 0 -68 -5
-75 -13 -19 -23 9 -37 76 -37 l62 0 3 -97 c3 -90 5 -98 23 -98 18 0 20 8 23
97 l3 97 72 3 c64 3 72 5 72 23 0 18 -8 20 -72 23 l-73 3 0 57 0 57 50 16 c27
8 55 12 62 7 22 -13 82 -9 106 8 32 22 27 46 -19 94 -73 75 -197 113 -292 90z
m124 -79 c46 -46 49 -68 12 -78 -64 -17 -163 -3 -163 23 0 22 73 94 95 94 10
0 35 -17 56 -39z m-185 -26 c-21 -45 -52 -65 -76 -50 -14 9 20 49 65 76 17 11
30 19 31 19 0 0 -9 -20 -20 -45z m298 4 c31 -28 44 -45 37 -52 -20 -20 -56 3
-77 48 -12 25 -18 45 -14 45 4 0 28 -19 54 -41z"/>
<path d="M3419 3727 c-130 -49 -204 -154 -203 -288 1 -250 296 -380 477 -210
42 39 77 87 77 106 0 3 -38 5 -84 5 -62 0 -87 -4 -96 -15 -22 -26 -83 -39
-123 -26 -34 12 -87 61 -87 82 0 5 86 9 205 9 l205 0 1 23 c6 85 -22 171 -74
232 -42 51 -120 87 -196 92 -40 2 -80 -2 -102 -10z m160 -155 c13 -10 31 -28
39 -40 l14 -22 -126 0 -127 0 15 28 c13 25 34 41 76 56 25 9 83 -2 109 -22z"/>
<path d="M4104 3726 c-17 -8 -39 -24 -48 -37 l-16 -23 0 27 0 27 -80 0 -80 0
0 -275 0 -275 85 0 85 0 0 169 c0 162 1 171 23 196 15 18 36 28 65 32 l42 6 0
83 c0 81 -1 84 -22 84 -13 -1 -37 -7 -54 -14z"/>
<path d="M4484 3726 c-17 -8 -39 -24 -48 -37 l-16 -23 0 27 0 27 -80 0 -80 0
0 -275 0 -275 85 0 85 0 0 169 c0 162 1 171 23 196 15 18 36 28 65 32 l42 6 0
83 c0 81 -1 84 -22 84 -13 -1 -37 -7 -54 -14z"/>
<path d="M4774 3724 c-60 -21 -119 -77 -151 -142 -24 -49 -28 -69 -28 -142 0
-95 19 -146 79 -208 86 -93 248 -109 329 -34 l27 26 0 -27 0 -27 85 0 85 0 0
275 0 275 -85 0 -85 0 0 -27 0 -26 -23 21 c-53 50 -150 65 -233 36z m191 -164
c60 -37 80 -111 48 -177 -46 -98 -188 -99 -238 -3 -33 64 -6 156 55 187 37 19
98 16 135 -7z"/>
<path d="M5489 3726 c-127 -45 -198 -147 -199 -281 0 -84 28 -152 85 -210 109
-108 302 -109 413 -2 32 30 82 114 82 137 0 6 -33 10 -85 10 -74 0 -86 -2 -95
-20 -15 -27 -62 -50 -105 -50 -77 0 -127 53 -127 135 0 82 50 135 126 135 45
0 82 -17 101 -47 14 -21 22 -23 101 -23 84 0 85 0 79 23 -13 45 -61 112 -103
144 -75 57 -192 78 -273 49z"/>
<path d="M6123 3724 c-141 -50 -226 -229 -178 -375 36 -108 162 -199 274 -199
98 0 200 61 249 149 l23 41 -89 0 c-75 0 -92 -3 -106 -19 -38 -42 -137 -33
-175 16 -41 51 -38 52 182 55 l202 3 3 43 c8 113 -75 241 -184 281 -64 24
-141 26 -201 5z m151 -138 c31 -13 66 -49 66 -68 0 -5 -54 -8 -120 -8 -66 0
-120 3 -120 8 0 18 35 55 64 68 40 17 69 17 110 0z"/>
<path d="M1046 3592 c-3 -5 4 -42 14 -83 11 -41 20 -107 20 -147 0 -65 2 -73
18 -70 11 2 18 14 20 36 3 28 7 32 32 32 25 0 29 -4 32 -32 2 -21 8 -33 18
-33 11 0 16 15 18 64 4 78 -12 101 -69 101 -37 0 -37 1 -49 53 -19 77 -38 105
-54 79z m132 -184 c3 -14 -3 -18 -27 -18 -25 0 -31 4 -31 21 0 16 5 20 27 17
17 -2 29 -10 31 -20z"/>
<path d="M1595 3588 c-2 -7 -10 -38 -18 -68 -13 -54 -14 -55 -52 -58 -59 -5
-65 -15 -65 -98 0 -58 3 -74 14 -74 9 0 16 12 18 33 3 28 7 32 36 35 31 3 32
2 32 -33 0 -29 3 -36 18 -33 14 3 18 19 23 103 4 55 12 116 18 135 6 19 11 43
11 52 0 20 -28 25 -35 6z m-35 -178 c0 -15 -7 -20 -29 -20 -34 0 -51 18 -30
31 26 17 59 10 59 -11z"/>
<path d="M4945 2972 c-111 -53 -175 -149 -183 -273 -6 -100 14 -162 75 -229
64 -71 129 -102 224 -108 66 -4 84 -1 130 20 30 14 69 38 88 54 32 27 91 108
91 126 0 4 -40 8 -89 8 -82 0 -92 -2 -117 -25 -56 -52 -158 -40 -201 24 -13
19 -23 38 -23 42 0 5 102 9 226 9 l227 0 -5 78 c-6 96 -37 161 -108 225 -92
83 -222 102 -335 49z m212 -147 c12 -8 30 -29 38 -45 l16 -30 -137 0 -136 0
19 33 c37 64 135 84 200 42z"/>
<path d="M5680 2991 c-51 -16 -89 -41 -133 -91 -59 -66 -82 -131 -81 -233 1
-68 5 -86 35 -144 56 -111 142 -163 268 -163 67 0 117 16 150 49 l21 21 0 -25
c0 -25 0 -25 95 -25 l95 0 0 300 0 300 -95 0 -95 0 0 -27 0 -26 -23 21 c-49
46 -160 66 -237 43z m188 -181 c53 -32 74 -75 69 -143 -3 -51 -8 -62 -40 -95
-35 -35 -41 -37 -102 -37 -61 0 -67 2 -102 37 -32 33 -37 44 -40 95 -3 46 0
65 16 91 28 43 77 72 126 72 22 0 54 -9 73 -20z"/>
<path d="M6483 2981 c-17 -11 -36 -28 -42 -38 -9 -16 -10 -15 -11 10 l0 27
-90 0 -90 0 0 -300 0 -300 95 0 95 0 0 180 c0 110 4 188 11 203 12 27 39 42
93 52 l36 7 0 89 0 89 -32 0 c-18 0 -47 -9 -65 -19z"/>
<path d="M4231 2703 c60 -153 109 -285 109 -295 0 -9 -20 -64 -44 -122 l-45
-106 98 0 97 0 147 393 c81 215 147 395 147 400 0 4 -42 7 -94 7 l-95 0 -54
-166 c-30 -91 -56 -167 -58 -169 -3 -2 -31 73 -63 166 l-58 169 -98 0 -98 0
109 -277z"/>
<path d="M2931 2914 c-12 -15 -21 -35 -21 -45 0 -11 -7 -19 -15 -19 -9 0 -15
-9 -15 -25 0 -14 7 -28 15 -31 12 -5 15 -26 15 -100 l0 -94 40 0 40 0 0 95 c0
78 3 95 15 95 10 0 15 10 15 30 0 20 -5 30 -15 30 -8 0 -15 7 -15 15 0 8 7 15
15 15 10 0 15 10 15 30 0 27 -3 30 -34 30 -25 0 -40 -7 -55 -26z"/>
<path d="M3210 2895 c0 -38 -3 -45 -20 -45 -15 0 -20 -7 -20 -26 0 -17 6 -28
20 -31 18 -5 20 -14 20 -99 l0 -94 40 0 40 0 0 95 c0 78 3 95 15 95 10 0 15
10 15 30 0 20 -5 30 -15 30 -11 0 -15 12 -15 45 l0 45 -40 0 -40 0 0 -45z"/>
<path d="M3350 2770 l0 -170 40 0 40 0 0 76 c0 82 11 114 38 114 34 0 42 -22
42 -107 l0 -83 40 0 40 0 0 96 c0 95 -8 128 -39 151 -20 15 -76 17 -102 3 -18
-10 -19 -7 -19 40 l0 50 -40 0 -40 0 0 -170z"/>
<path d="M900 2895 c-7 -9 -15 -38 -18 -65 -4 -48 -4 -50 21 -50 23 0 26 4 29
43 4 50 22 52 26 2 2 -26 -6 -53 -31 -98 -20 -34 -38 -79 -42 -99 l-7 -38 67
0 c58 0 66 2 63 18 -2 11 -14 18 -36 20 -17 2 -32 8 -32 14 0 6 16 39 35 74
57 102 44 194 -29 194 -19 0 -39 -7 -46 -15z"/>
<path d="M1156 2894 c-24 -23 -28 -53 -24 -169 3 -98 5 -108 27 -126 32 -26
67 -24 96 6 24 23 25 30 25 145 0 107 -2 122 -20 140 -24 24 -82 27 -104 4z
m68 -40 c3 -9 6 -60 6 -115 0 -82 -3 -101 -16 -106 -9 -3 -20 0 -25 8 -12 20
-11 186 1 210 13 23 26 24 34 3z"/>
<path d="M1426 2888 c-9 -12 -16 -42 -16 -65 0 -39 2 -43 24 -43 22 0 25 5 28
43 4 49 22 52 26 4 2 -24 -8 -56 -37 -111 -23 -42 -41 -88 -41 -101 0 -24 3
-25 66 -25 57 0 65 2 62 18 -2 12 -14 18 -41 20 l-37 3 40 78 c61 119 51 201
-25 201 -24 0 -39 -7 -49 -22z"/>
<path d="M1725 2898 c-22 -62 -65 -215 -65 -234 0 -21 5 -24 40 -24 36 0 40
-2 40 -25 0 -18 5 -25 20 -25 15 0 20 7 20 25 0 16 6 25 15 25 8 0 15 9 15 20
0 11 -7 23 -15 26 -12 5 -15 27 -15 115 l0 109 -25 0 c-14 0 -28 -6 -30 -12z
m8 -209 c-5 -5 -13 -5 -20 -1 -9 6 -7 22 5 67 l17 60 3 -59 c2 -32 -1 -63 -5
-67z"/>
<path d="M2675 2850 c-31 -12 -64 -53 -75 -90 -28 -97 65 -188 168 -166 76 17
124 124 88 195 -31 59 -117 88 -181 61z m95 -80 c23 -23 26 -58 8 -82 -36 -46
-121 -4 -103 51 16 51 61 65 95 31z"/>
<path d="M3693 2840 c-88 -53 -82 -190 10 -233 64 -31 126 -15 167 43 l21 30
-45 0 c-25 0 -48 -4 -51 -10 -14 -23 -85 -5 -85 22 0 4 40 8 89 8 50 0 93 4
96 10 13 21 -16 89 -50 119 -43 37 -102 42 -152 11z m91 -50 c43 -16 30 -30
-26 -30 l-53 1 24 19 c27 23 23 23 55 10z"/>
<path d="M1917 1103 c-4 -3 -7 -69 -7 -145 0 -131 1 -138 20 -138 18 0 20 8
22 102 l3 102 45 -102 c38 -85 49 -102 68 -102 22 0 22 1 22 146 0 133 -1 145
-17 142 -15 -3 -19 -18 -23 -100 l-5 -96 -44 99 c-42 94 -61 115 -84 92z"/>
<path d="M2594 1096 c-8 -21 3 -36 27 -36 15 0 20 6 17 22 -4 27 -35 37 -44
14z"/>
<path d="M4183 1095 c-13 -9 -23 -27 -23 -41 0 -15 -6 -24 -15 -24 -8 0 -15
-7 -15 -15 0 -8 7 -15 15 -15 12 0 15 -17 15 -90 0 -83 1 -90 20 -90 19 0 20
7 20 90 0 83 1 90 20 90 11 0 20 7 20 15 0 8 -9 15 -20 15 -27 0 -27 36 1 43
23 6 21 30 -2 35 -8 1 -24 -5 -36 -13z"/>
<path d="M5080 1085 c0 -18 5 -25 20 -25 15 0 20 7 20 25 0 18 -5 25 -20 25
-15 0 -20 -7 -20 -25z"/>
<path d="M3050 1060 c0 -20 -5 -30 -15 -30 -19 0 -20 -26 0 -33 10 -5 15 -28
17 -89 l3 -83 33 -3 c23 -2 32 1 32 11 0 8 -7 17 -15 21 -11 4 -15 22 -15 76
0 56 3 70 15 70 8 0 15 7 15 15 0 8 -7 15 -15 15 -10 0 -15 10 -15 30 0 23 -4
30 -20 30 -16 0 -20 -7 -20 -30z"/>
<path d="M5170 1060 c0 -16 -4 -30 -10 -30 -5 0 -10 -7 -10 -15 0 -8 5 -15 10
-15 6 0 10 -33 10 -78 0 -86 8 -102 52 -102 33 0 39 25 8 33 -18 5 -20 14 -20
76 0 64 2 71 20 71 11 0 20 7 20 15 0 8 -9 15 -20 15 -16 0 -20 7 -20 30 0 23
-4 30 -20 30 -16 0 -20 -7 -20 -30z"/>
<path d="M5550 1060 c0 -20 -5 -30 -15 -30 -8 0 -15 -7 -15 -15 0 -8 7 -15 15
-15 11 0 15 -19 17 -87 l3 -88 33 -3 c24 -2 32 1 32 12 0 9 -7 16 -15 16 -12
0 -15 15 -15 75 0 60 3 75 15 75 8 0 15 7 15 15 0 8 -7 15 -15 15 -10 0 -15
10 -15 30 0 23 -4 30 -20 30 -16 0 -20 -7 -20 -30z"/>
<path d="M2179 1028 c-15 -5 -31 -20 -38 -34 -14 -32 -14 -106 0 -138 24 -52
103 -55 130 -4 17 32 15 122 -4 151 -18 28 -51 37 -88 25z m55 -44 c3 -9 6
-35 6 -59 0 -55 -8 -75 -29 -75 -29 0 -41 22 -41 75 0 28 5 56 12 63 17 17 45
15 52 -4z"/>
<path d="M2385 1029 c-11 -4 -30 -5 -42 -2 -23 5 -23 4 -23 -101 0 -99 1 -106
20 -106 17 0 19 8 22 81 2 66 7 84 21 93 27 17 37 -8 37 -96 0 -71 2 -78 20
-78 17 0 19 8 22 88 3 79 5 87 23 87 18 0 20 -8 23 -87 3 -86 3 -88 27 -88 24
0 25 2 25 80 0 117 -25 155 -84 125 -14 -8 -28 -10 -31 -6 -8 13 -39 19 -60
10z"/>
<path d="M2757 1034 c-4 -4 -24 -7 -44 -8 l-38 -1 0 -100 c0 -96 1 -100 23
-103 21 -3 22 -1 22 76 0 83 13 111 45 98 12 -4 15 -24 15 -91 0 -78 2 -85 20
-85 19 0 20 7 20 94 0 87 -2 96 -22 110 -25 18 -32 19 -41 10z"/>
<path d="M2893 1030 c-27 -11 -40 -49 -22 -61 10 -6 18 -2 28 11 20 29 51 26
51 -5 0 -20 -7 -26 -40 -35 -46 -12 -66 -43 -56 -85 9 -34 51 -51 80 -32 15
10 26 11 37 4 22 -14 57 -1 41 15 -7 7 -12 41 -12 79 0 49 -5 72 -17 87 -21
25 -60 35 -90 22z m55 -142 c-2 -25 -8 -34 -24 -36 -37 -5 -42 52 -6 61 32 9
33 7 30 -25z"/>
<path d="M3189 1029 c-33 -12 -49 -47 -49 -104 0 -57 16 -91 49 -105 45 -18
101 15 101 59 0 20 -38 12 -45 -9 -8 -26 -41 -26 -55 -1 -18 35 -12 41 45 41
l55 0 0 39 c0 64 -46 100 -101 80z m55 -45 c13 -34 7 -44 -29 -44 -37 0 -42 9
-25 41 13 23 46 25 54 3z"/>
<path d="M3619 1029 c-33 -12 -49 -47 -49 -104 0 -58 16 -91 51 -105 62 -26
118 45 104 132 -11 65 -53 96 -106 77z m56 -52 c4 -13 5 -45 3 -73 -2 -39 -7
-50 -22 -52 -11 -3 -26 4 -33 14 -16 21 -17 88 -3 115 15 27 48 24 55 -4z"/>
<path d="M4002 1024 c-13 -9 -22 -11 -22 -5 0 6 -9 11 -20 11 -19 0 -20 -7
-20 -105 0 -98 1 -105 20 -105 18 0 20 7 20 64 0 78 6 95 36 107 24 8 32 33
16 43 -5 3 -18 -2 -30 -10z"/>
<path d="M4293 1030 c-26 -11 -40 -49 -22 -61 16 -10 29 -2 29 17 0 8 10 14
25 14 20 0 25 -5 25 -25 0 -20 -7 -26 -40 -35 -27 -7 -45 -19 -52 -35 -26 -57
27 -114 76 -82 15 10 27 13 31 7 9 -15 45 -12 45 3 0 8 -3 16 -6 19 -3 3 -6
38 -7 77 -2 47 -8 76 -17 85 -20 20 -60 27 -87 16z m55 -142 c-3 -34 -30 -50
-50 -30 -14 14 -1 50 20 55 32 9 33 7 30 -25z"/>
<path d="M4633 1030 c-31 -13 -45 -44 -45 -104 -1 -62 14 -93 48 -106 64 -25
104 16 104 105 -1 63 -10 84 -47 103 -25 14 -30 14 -60 2z m55 -42 c16 -16 16
-110 0 -126 -17 -17 -45 -15 -52 4 -3 9 -6 37 -6 63 0 46 12 71 35 71 6 0 16
-5 23 -12z"/>
<path d="M6110 1033 c-24 -9 -50 -35 -50 -50 0 -18 37 -16 44 3 9 23 50 14 54
-13 3 -17 -3 -24 -25 -29 -58 -12 -64 -16 -74 -42 -13 -33 5 -78 34 -86 12 -3
34 1 49 9 15 7 28 9 28 4 0 -5 11 -9 25 -9 16 0 25 6 25 15 0 8 -4 15 -10 15
-6 0 -10 31 -10 73 0 43 -5 80 -12 90 -15 18 -55 29 -78 20z m50 -136 c0 -28
-17 -47 -42 -47 -28 0 -24 48 5 60 33 13 37 12 37 -13z"/>
<path d="M6285 1030 c-38 -15 -50 -40 -50 -106 0 -52 4 -67 22 -85 43 -43 123
-16 123 42 0 28 -29 23 -40 -7 -7 -18 -16 -25 -32 -22 -28 4 -41 51 -30 105 6
29 13 39 31 41 16 3 24 -2 28 -17 6 -23 43 -29 43 -7 0 19 -31 53 -55 59 -11
3 -29 2 -40 -3z"/>
<path d="M2590 925 l0 -105 25 0 25 0 0 105 0 105 -25 0 -25 0 0 -105z"/>
<path d="M3400 1023 c0 -5 13 -53 28 -108 31 -107 31 -135 1 -135 -12 0 -19
-7 -19 -20 0 -26 41 -27 62 -2 8 9 31 74 50 145 l35 127 -22 0 c-18 0 -24 -9
-35 -57 -17 -80 -26 -93 -34 -52 -17 86 -27 109 -46 109 -11 0 -20 -3 -20 -7z"/>
<path d="M3760 935 c0 -89 1 -95 25 -111 16 -10 32 -13 47 -8 13 4 33 7 46 5
22 -2 22 0 22 103 0 99 -1 106 -20 106 -18 0 -20 -7 -20 -79 0 -82 -13 -110
-45 -97 -12 4 -15 24 -15 91 0 78 -2 85 -20 85 -19 0 -20 -7 -20 -95z"/>
<path d="M4420 1017 c0 -7 6 -36 14 -63 8 -27 20 -68 26 -91 9 -36 15 -43 35
-43 20 0 26 7 35 43 6 23 18 65 26 94 18 66 18 73 -5 73 -16 0 -23 -14 -37
-77 l-18 -78 -19 78 c-15 62 -23 77 -38 77 -11 0 -19 -6 -19 -13z"/>
<path d="M4772 935 c1 -53 8 -99 14 -106 7 -6 25 -11 40 -10 16 0 44 1 62 1
l32 0 0 105 c0 98 -1 105 -20 105 -18 0 -20 -7 -20 -73 0 -79 -15 -115 -44
-104 -13 5 -16 22 -16 92 0 85 0 85 -26 85 l-26 0 4 -95z"/>
<path d="M4960 925 c0 -98 1 -105 20 -105 17 0 19 8 22 78 3 69 5 78 26 87 12
5 22 18 22 27 0 21 -20 24 -38 6 -9 -9 -12 -9 -12 0 0 7 -9 12 -20 12 -19 0
-20 -7 -20 -105z"/>
<path d="M5080 925 c0 -98 1 -105 20 -105 19 0 20 7 20 105 0 98 -1 105 -20
105 -19 0 -20 -7 -20 -105z"/>
<path d="M5286 1008 c-32 -52 -27 -148 10 -179 36 -30 114 -1 114 43 0 24 -27
23 -40 -3 -16 -29 -52 -21 -61 13 -7 27 -7 27 49 30 l57 3 -2 39 c-4 52 -27
76 -74 76 -29 0 -42 -6 -53 -22z m84 -28 c15 -27 5 -40 -31 -40 -24 0 -29 4
-29 23 0 13 3 27 7 30 13 14 43 6 53 -13z"/>
<path d="M5674 1022 c-33 -22 -46 -115 -23 -166 29 -63 139 -44 139 23 0 20
-38 11 -43 -9 -7 -26 -43 -26 -57 -1 -18 35 -12 41 45 41 l55 0 0 38 c0 55
-23 82 -68 82 -20 0 -42 -4 -48 -8z m74 -54 c3 -26 1 -28 -32 -28 -28 0 -36 4
-36 18 0 48 63 56 68 10z"/>
<path d="M5820 925 c0 -105 0 -105 25 -105 24 0 24 2 27 83 3 76 5 82 26 85
14 2 22 10 22 23 0 22 -29 26 -48 7 -9 -9 -12 -9 -12 0 0 7 -9 12 -20 12 -19
0 -20 -7 -20 -105z"/>
<path d="M5940 925 l0 -105 25 0 c24 0 25 2 25 69 0 82 6 101 31 101 12 0 19
7 19 20 0 23 -29 27 -48 8 -9 -9 -12 -9 -12 0 0 7 -9 12 -20 12 -19 0 -20 -7
-20 -105z"/>
<path d="M6424 1005 c-19 -30 -22 -122 -4 -155 13 -25 53 -42 77 -33 29 10 53
35 53 55 0 24 -27 23 -40 -3 -17 -30 -54 -22 -58 13 -3 26 -1 27 50 30 l53 3
-1 38 c-2 51 -27 77 -75 77 -30 0 -42 -6 -55 -25z m86 -24 c17 -32 12 -41 -25
-41 -30 0 -35 3 -35 23 0 13 3 27 7 30 13 14 43 7 53 -12z"/>
</g>
</svg>
